#!OML:ASF I:\Actors\actors\Patient Classification 1\Patient 1\Session 1\Subject1.ASF
:FULLY-SPECIFIED
:DEGREES
416
root 1.02633 17.4636 9.24056 8.17817 0.604047 -7.02349
lowerback -3.82449 0.123388 5.9417
upperback -11.4063 0.521987 2.97054
thorax -9.9924 -0.111096 -0.156071
lowerneck -6.18372 0.344141 -0.113062
upperneck 26.4293 -1.01611 5.93813
head 9.33681 0.139215 1.97369
rclavicle 1.49089e-014 -3.81667e-014
rhumerus -50.085 -25.837 -61.0544
rradius 24.9467
rwrist 44.7463
rhand 5.96733 -33.3668
rfingers 7.12502
rthumb 31.2922 -60.7122
lclavicle 1.49089e-014 -3.81667e-014
lhumerus 23.0166 -15.0714 62.6498
lradius 143.716
lwrist 54.247
lhand -1.33717 -6.03558
lfingers 7.12502
lthumb 24.309 22.443
rfemur -2.21648 24.9139 23.2335
rtibia 2.16368
rfoot -13.4549 -28.863
rtoes 4.37516
lfemur 5.69308 -43.0633 -15.9394
ltibia -4.98455
lfoot -16.7717 49.6665
ltoes 9.12631
417
root 1.01885 17.4641 9.24163 8.17504 0.64521 -7.06274
lowerback -3.77653 0.130501 5.95576
upperback -11.4256 0.536769 2.96034
thorax -10.0425 -0.106758 -0.174816
lowerneck -6.14074 0.302633 -0.0392083
upperneck 26.4296 -1.09028 5.95286
head 9.33184 0.11263 1.95869
rclavicle 4.27387e-015 -9.93923e-015
rhumerus -50.2848 -25.9215 -61.0096
rradius 25.0224
rwrist 44.7025
rhand 5.97031 -33.4427
rfingers 7.12502
rthumb 31.295 -60.7875
lclavicle 4.27387e-015 -9.93923e-015
lhumerus 23.0108 -15.2498 62.5767
lradius 143.689
lwrist 54.2129
lhand -1.56227 -6.25389
lfingers 7.12502
lthumb 24.0932 22.2535
rfemur -2.21146 24.9648 23.3144
rtibia 2.17125
rfoot -13.479 -28.9271
rtoes 4.42984
lfemur 5.67378 -43.0467 -15.8368
ltibia -4.99376
lfoot -16.7478 49.6349
ltoes 9.05732
418
root 1.01249 17.4645 9.24386 8.18016 0.661343 -7.06096
lowerback -3.72886 0.126588 5.94939
upperback -11.463 0.53624 2.93896
thorax -10.1136 -0.109521 -0.193046
lowerneck -6.07343 0.289302 0.152289
upperneck 26.4504 -1.10996 5.8346
head 9.32702 0.109244 1.88271
rclavicle 6.36111e-015 -1.61016e-014
rhumerus -50.4348 -25.9157 -61.0088
rradius 25.004
rwrist 44.6365
rhand 5.94769 -33.4989
rfingers 7.12502
rthumb 31.2735 -60.8478
lclavicle 6.36111e-015 -1.61016e-014
lhumerus 22.92 -15.3239 62.4926
lradius 143.689
lwrist 54.2328
lhand -1.67881 -6.34716
lfingers 7.12502
lthumb 23.9814 22.1749
rfemur -2.17076 25.1027 23.3471
rtibia 2.13481
rfoot -13.6311 -29.0073
rtoes 5.09109
lfemur 5.70569 -43.2185 -15.862
ltibia -4.95459
lfoot -16.8604 49.7633
ltoes 9.1731
419
root 1.00772 17.4647 9.24655 8.19362 0.645497 -7.04802
lowerback -3.70783 0.117218 5.93994
upperback -11.4815 0.526986 2.94882
thorax -10.148 -0.113617 -0.176219
lowerneck -6.10681 0.288082 0.168871
upperneck 26.5827 -1.11709 5.81282
head 9.38061 0.108191 1.87433
rclavicle -2.01766e-014 3.67752e-014
rhumerus -50.4858 -25.9039 -60.9525
rradius 24.8874
rwrist 44.7129
rhand 5.88881 -33.427
rfingers 7.12502
rthumb 31.2174 -60.7868
lclavicle -2.01766e-014 3.67752e-014
lhumerus 22.8168 -15.2077 62.4252
lradius 143.719
lwrist 54.3404
lhand -1.68627 -6.26351
lfingers 7.12502
lthumb 23.9743 22.2595
rfemur -2.14031 25.1488 23.3523
rtibia 2.07336
rfoot -13.5969 -29.0172
rtoes 5.21023
lfemur 5.80365 -43.5313 -15.9692
ltibia -4.92726
lfoot -17.1949 50.0455
ltoes 9.48896
420
root 1.00229 17.4637 9.24937 8.21843 0.616676 -7.06531
lowerback -3.72798 0.131581 5.95599
upperback -11.476 0.545502 2.96169
thorax -10.1291 -0.104801 -0.172446
lowerneck -6.2152 0.25787 0.00259817
upperneck 26.7767 -1.17756 5.93472
head 9.47307 0.0814196 1.94408
rclavicle 1.55052e-014 -3.16068e-014
rhumerus -50.5092 -25.983 -60.8418
rradius 24.7448
rwrist 44.8487
rhand 5.83433 -33.297
rfingers 7.12502
rthumb 31.1654 -60.6668
lclavicle 1.55052e-014 -3.16068e-014
lhumerus 22.7836 -15.0447 62.339
lradius 143.726
lwrist 54.5321
lhand -1.65983 -6.27814
lfingers 7.12502
lthumb 23.9996 22.2416
rfemur -2.12767 25.2122 23.3877
rtibia 2.01214
rfoot -13.5529 -29.0473
rtoes 5.18656
lfemur 5.82544 -43.5957 -15.9445
ltibia -4.94199
lfoot -17.4065 50.1323
ltoes 9.59461
421
root 0.996382 17.463 9.25225 8.27125 0.599671 -7.06479
lowerback -3.81137 0.151743 5.94838
upperback -11.4743 0.563592 2.94302
thorax -10.0763 -0.095199 -0.189523
lowerneck -6.24868 0.242017 -0.131031
upperneck 26.8818 -1.22519 6.09158
head 9.51961 0.0648838 2.01971
rclavicle -1.28216e-014 3.45885e-014
rhumerus -50.5566 -26.0322 -60.7991
rradius 24.6411
rwrist 44.9345
rhand 5.88699 -33.2772
rfingers 7.12502
rthumb 31.2156 -60.6374
lclavicle -1.28216e-014 3.45885e-014
lhumerus 22.7449 -14.9598 62.2398
lradius 143.728
lwrist 54.6514
lhand -1.58282 -6.46713
lfingers 7.12502
lthumb 24.0735 22.0428
rfemur -2.15052 25.2972 23.39
rtibia 1.96891
rfoot -13.6401 -29.0868
rtoes 5.57859
lfemur 5.71805 -43.4964 -15.8411
ltibia -4.91909
lfoot -17.4056 50.0509
ltoes 9.45924
422
root 0.991681 17.4627 9.25517 8.32076 0.602573 -7.05076
lowerback -3.89473 0.173147 5.95442
upperback -11.4829 0.581773 2.89029
thorax -10.035 -0.0890793 -0.250315
lowerneck -6.29808 0.235533 -0.193702
upperneck 27.0263 -1.27867 6.26749
head 9.58417 0.0559026 2.09033
rclavicle -2.68359e-015 3.57812e-015
rhumerus -50.6896 -26.0672 -60.776
rradius 24.6112
rwrist 45.0455
rhand 6.00434 -33.3177
rfingers 7.12502
rthumb 31.3275 -60.6562
lclavicle -2.68359e-015 3.57812e-015
lhumerus 22.7123 -14.9586 62.1505
lradius 143.733
lwrist 54.6566
lhand -1.44638 -6.6
lfingers 7.12502
lthumb 24.2043 21.8926
rfemur -2.18182 25.3011 23.374
rtibia 1.95214
rfoot -13.6042 -29.0906
rtoes 5.51981
lfemur 5.62918 -43.4742 -15.7896
ltibia -4.87405
lfoot -17.4128 50.0167
ltoes 9.39998
423
root 0.987628 17.4624 9.2584 8.31648 0.599788 -7.04694
lowerback -3.90619 0.198602 5.97541
upperback -11.4761 0.61149 2.84204
thorax -10.0184 -0.0786612 -0.315203
lowerneck -6.41928 0.230646 -0.146472
upperneck 27.2388 -1.31401 6.29213
head 9.68582 0.0530239 2.09267
rclavicle 1.32689e-014 -2.70347e-014
rhumerus -50.8314 -26.1123 -60.7276
rradius 24.624
rwrist 45.1725
rhand 6.10334 -33.2842
rfingers 7.12502
rthumb 31.4218 -60.6044
lclavicle 1.32689e-014 -2.70347e-014
lhumerus 22.7332 -15.0071 62.1144
lradius 143.697
lwrist 54.5855
lhand -1.29564 -6.63099
lfingers 7.12502
lthumb 24.3488 21.8423
rfemur -2.1344 25.3163 23.3983
rtibia 1.91312
rfoot -13.5762 -29.0994
rtoes 5.41604
lfemur 5.6606 -43.473 -15.8076
ltibia -4.86525
lfoot -17.4815 50.0114
ltoes 9.47515
424
root 0.983467 17.4624 9.26103 8.28648 0.588533 -7.0247
lowerback -3.87871 0.219077 5.95096
upperback -11.4619 0.638268 2.81684
thorax -10.0161 -0.064425 -0.330263
lowerneck -6.53107 0.240967 -0.0179285
upperneck 27.4374 -1.29197 6.13416
head 9.77752 0.0652735 2.02195
rclavicle -6.95746e-016 1.11319e-014
rhumerus -50.8819 -26.0611 -60.7097
rradius 24.6064
rwrist 45.1356
rhand 6.13729 -33.2907
rfingers 7.12502
rthumb 31.4541 -60.6046
lclavicle -6.95746e-016 1.11319e-014
lhumerus 22.7409 -15.0679 62.1433
lradius 143.666
lwrist 54.4771
lhand -1.1687 -6.48184
lfingers 7.12502
lthumb 24.4705 21.975
rfemur -2.05384 25.3342 23.4175
rtibia 1.86154
rfoot -13.5608 -29.1141
rtoes 5.30033
lfemur 5.72329 -43.3979 -15.8522
ltibia -4.89059
lfoot -17.4013 49.9687
ltoes 9.40692
425
root 0.97936 17.4621 9.26344 8.28836 0.602603 -7.0162
lowerback -3.89215 0.217528 5.91417
upperback -11.458 0.634185 2.81776
thorax -10.0034 -0.0626872 -0.308903
lowerneck -6.55737 0.257439 0.0298303
upperneck 27.5629 -1.26012 6.04597
head 9.82642 0.0784309 1.98866
rclavicle 2.21148e-014 -5.4467e-014
rhumerus -50.8802 -25.9893 -60.6719
rradius 24.5317
rwrist 45.1204
rhand 6.19842 -33.4472
rfingers 7.12502
rthumb 31.5124 -60.7497
lclavicle 2.21148e-014 -5.4467e-014
lhumerus 22.6772 -15.101 62.1678
lradius 143.698
lwrist 54.4112
lhand -1.1361 -6.30732
lfingers 7.12502
lthumb 24.5018 22.1453
rfemur -2.02076 25.3859 23.4371
rtibia 1.82099
rfoot -13.5296 -29.1845
rtoes 5.1788
lfemur 5.7228 -43.3385 -15.8279
ltibia -4.92457
lfoot -17.2709 49.9162
ltoes 9.39296
426
root 0.976422 17.4616 9.26636 8.30653 0.649621 -7.03432
lowerback -3.93607 0.196668 5.90419
upperback -11.4548 0.603 2.8307
thorax -9.97522 -0.0757386 -0.288237
lowerneck -6.53832 0.271814 -0.00179193
upperneck 27.6136 -1.24075 6.06219
head 9.84046 0.0866367 2.00285
rclavicle -3.8763e-015 1.03368e-014
rhumerus -50.9 -26.0681 -60.4928
rradius 24.4174
rwrist 45.3418
rhand 6.34171 -33.5103
rfingers 7.12502
rthumb 31.6489 -60.786
lclavicle -3.8763e-015 1.03368e-014
lhumerus 22.599 -15.1274 62.1883
lradius 143.737
lwrist 54.3994
lhand -1.18499 -6.25905
lfingers 7.12502
lthumb 24.4549 22.1999
rfemur -1.99788 25.4865 23.4749
rtibia 1.77589
rfoot -13.6737 -29.2866
rtoes 5.70775
lfemur 5.69792 -43.3658 -15.7717
ltibia -4.93298
lfoot -17.2982 49.8891
ltoes 9.51534
427
root 0.97427 17.4609 9.26905 8.31131 0.700358 -7.04406
lowerback -3.95427 0.185111 5.90557
upperback -11.4469 0.585588 2.83012
thorax -9.95623 -0.0839122 -0.289035
lowerneck -6.56499 0.264102 -0.0255691
upperneck 27.6494 -1.24455 6.04143
head 9.85861 0.0812369 2.00018
rclavicle 2.83765e-014 -6.24184e-014
rhumerus -50.9808 -26.2992 -60.1797
rradius 24.31
rwrist 45.6968
rhand 6.33625 -33.4368
rfingers 7.12502
rthumb 31.6437 -60.7136
lclavicle 2.83765e-014 -6.24184e-014
lhumerus 22.5612 -15.1714 62.2185
lradius 143.747
lwrist 54.35
lhand -1.19098 -6.25609
lfingers 7.12502
lthumb 24.4491 22.2037
rfemur -1.96499 25.4989 23.5024
rtibia 1.73451
rfoot -13.7804 -29.311
rtoes 6.17016
lfemur 5.69251 -43.3874 -15.7458
ltibia -4.93439
lfoot -17.2671 49.873
ltoes 9.34229
428
root 0.971479 17.46 9.2707 8.32672 0.73189 -7.03869
lowerback -3.9764 0.18246 5.87441
upperback -11.4384 0.578737 2.82461
thorax -9.93311 -0.0841418 -0.27769
lowerneck -6.63042 0.281104 -0.101586
upperneck 27.7059 -1.20732 6.029
head 9.89012 0.0915527 2.01439
rclavicle 2.43014e-014 -5.74488e-014
rhumerus -51.0516 -26.5462 -59.8726
rradius 24.2003
rwrist 46.0168
rhand 6.19575 -33.4966
rfingers 7.12502
rthumb 31.5098 -60.7996
lclavicle 2.43014e-014 -5.74488e-014
lhumerus 22.5357 -15.2051 62.2495
lradius 143.769
lwrist 54.2619
lhand -1.17896 -6.27711
lfingers 7.12502
lthumb 24.4607 22.1811
rfemur -1.96711 25.4814 23.5079
rtibia 1.7182
rfoot -13.7168 -29.3262
rtoes 6.04277
lfemur 5.671 -43.4115 -15.7212
ltibia -4.93661
lfoot -17.211 49.8766
ltoes 9.11909
429
root 0.96925 17.4596 9.27124 8.35825 0.747558 -7.03715
lowerback -4.01554 0.179468 5.83825
upperback -11.4307 0.569915 2.8203
thorax -9.90084 -0.0847017 -0.262224
lowerneck -6.64163 0.291242 -0.0838867
upperneck 27.7402 -1.18504 5.9824
head 9.90366 0.0995106 1.99792
rclavicle 4.27387e-015 -1.78906e-014
rhumerus -51.0875 -26.7245 -59.629
rradius 24.096
rwrist 46.2166
rhand 6.12261 -33.4892
rfingers 7.12502
rthumb 31.4401 -60.8058
lclavicle 4.27387e-015 -1.78906e-014
lhumerus 22.522 -15.2032 62.2943
lradius 143.785
lwrist 54.2072
lhand -1.19041 -6.23687
lfingers 7.12502
lthumb 24.4497 22.2228
rfemur -2.01682 25.4709 23.5053
rtibia 1.75186
rfoot -13.6381 -29.3537
rtoes 5.64774
lfemur 5.62349 -43.4487 -15.6804
ltibia -4.93204
lfoot -17.2839 49.8887
ltoes 9.17565
